<svg version="1.1" id="Layer_1" xmlns="http://www.w3.org/2000/svg" xmlns:xlink="http://www.w3.org/1999/xlink" x="0px" y="0px"
	 width="100%" viewBox="0 0 615 406" enable-background="new 0 0 615 406" xml:space="preserve">
<path fill="#000000" opacity="1.000000" stroke="none" 
	d="
M378.000000,407.000000 
	C252.030701,407.000000 126.561417,407.000000 1.046061,407.000000 
	C1.046061,271.730499 1.046061,136.460983 1.046061,1.095730 
	C205.885986,1.095730 410.772034,1.095730 615.829041,1.095730 
	C615.829041,136.333160 615.829041,271.666565 615.829041,407.000000 
	C536.794250,407.000000 457.647125,407.000000 378.000000,407.000000 
M127.026703,262.504639 
	C127.344742,262.627472 127.662781,262.750305 128.245285,263.151184 
	C128.245285,263.151184 128.596375,263.300018 128.596375,263.300018 
	C128.596375,263.300018 128.964676,263.201599 129.508957,263.741547 
	C129.754074,263.813812 129.999191,263.886078 130.683472,264.474976 
	C141.892227,269.463684 153.432327,269.978363 165.190567,266.896484 
	C169.930893,265.654022 175.274353,264.891388 175.495392,257.743835 
	C180.859039,252.120499 180.670502,247.510834 173.804214,243.854675 
	C168.244705,240.894333 161.911240,239.387466 155.326874,237.022476 
	C155.326874,235.653854 155.326874,233.386734 155.326874,230.765442 
	C152.658188,230.429718 150.270828,230.129379 147.366699,229.764038 
	C147.366699,232.791504 147.366699,235.544037 147.366699,237.090408 
	C140.530258,239.503906 134.132233,240.948288 128.562668,243.936707 
	C121.729782,247.602951 121.893837,253.024719 128.111511,259.198395 
	C127.710037,260.151672 127.308563,261.104950 126.949951,262.083923 
	C126.949951,262.083923 126.964058,262.131805 127.000458,262.153320 
	C127.000458,262.153320 126.964951,262.120880 127.026703,262.504639 
M458.355255,185.428299 
	C458.234375,191.343384 457.943817,197.263855 458.130615,203.169205 
	C458.169678,204.403717 459.969849,205.582535 460.478149,207.082581 
	C460.048157,207.437302 459.618164,207.792007 458.367889,208.426956 
	C458.367889,215.170059 458.367889,221.913147 458.367889,229.597351 
	C461.492462,228.931549 464.171875,228.360596 466.905212,226.880753 
	C466.905212,220.848877 466.905212,214.817001 466.905212,208.864151 
	C465.502319,208.108856 464.271912,207.446442 463.481720,206.260452 
	C464.606262,205.788116 465.730835,205.315781 466.907227,203.927628 
	C466.907227,197.689713 466.907227,191.451782 466.907227,185.142410 
	C463.814331,185.142410 461.493530,185.142410 458.355255,185.428299 
M209.773087,193.354797 
	C209.667648,204.780060 209.558182,216.205307 209.487244,227.630783 
	C209.485901,227.848053 209.940338,228.068161 210.866394,228.603897 
	C213.104523,228.603897 215.342651,228.603897 217.742218,228.603897 
	C218.152222,219.870575 218.579422,211.792175 214.643661,204.086105 
	C213.429504,201.708847 213.506210,198.672302 213.697617,196.183289 
	C215.562912,200.985580 217.206818,205.892014 219.394180,210.542831 
	C220.373627,212.625351 222.442566,214.195465 224.017090,215.998108 
	C225.925095,214.264160 228.269241,212.813934 229.629135,210.723434 
	C231.275909,208.191864 232.090408,205.118912 233.673248,202.712692 
	C233.822754,202.842819 233.972275,202.972961 234.095703,203.868866 
	C233.371643,206.237061 232.647583,208.605240 231.285309,211.528702 
	C231.285309,217.256668 231.285309,222.984634 231.285309,228.638214 
	C234.411011,228.638214 236.989517,228.638214 239.981384,228.638214 
	C239.981384,223.032349 239.981812,217.752060 239.981262,212.471786 
	C239.980667,206.827499 240.022324,201.182465 239.925262,195.539841 
	C239.912659,194.807098 239.182602,194.086716 238.784882,193.360611 
	C238.498444,193.895691 238.211990,194.430756 237.179688,195.060394 
	C237.027969,194.183624 236.561951,193.216354 236.783493,192.447083 
	C237.446564,190.144638 238.378616,187.919647 239.349365,185.272522 
	C235.942123,185.272522 233.165298,185.272522 230.744919,185.272522 
	C228.641983,190.284363 226.673676,194.975357 224.618286,199.873901 
	C223.692230,198.221741 222.888382,196.972427 222.271133,195.636856 
	C221.587967,194.158722 221.042877,192.613342 220.494278,191.077026 
	C218.032730,184.183594 217.597046,183.950851 210.136078,185.847275 
	C211.107941,189.233307 212.078659,192.615341 212.618027,196.592224 
	C211.973267,195.506439 211.328506,194.420670 209.773087,193.354797 
M382.239655,212.494827 
	C382.239655,217.884888 382.239655,223.274948 382.239655,229.617279 
	C385.503448,228.915680 388.169373,228.342590 390.894226,226.863144 
	C390.899933,217.132553 390.991699,207.400482 390.824066,197.672882 
	C390.797089,196.106644 389.613892,194.560333 388.658386,192.266800 
	C389.341614,189.999146 390.024811,187.731491 390.732788,185.381531 
	C382.366821,184.607483 382.386505,184.615692 379.563477,191.380554 
	C378.606476,193.673813 377.522217,195.913956 375.924744,199.439255 
	C374.351440,195.897568 373.264923,193.605072 372.304443,191.260956 
	C369.387909,184.143158 369.318115,184.089401 360.883301,185.722702 
	C363.327484,189.627960 361.621857,193.474930 361.329102,197.489975 
	C360.594604,207.563156 361.142334,217.729828 361.447815,228.652390 
	C364.159302,228.778671 366.870758,228.904953 370.434418,229.070923 
	C369.938141,222.827606 369.504822,217.376175 368.889191,211.196899 
	C367.214233,206.829193 365.539246,202.461472 363.864288,198.093765 
	C364.332031,197.902557 364.799805,197.711349 365.267578,197.520142 
	C365.892975,198.723740 366.634552,199.882263 367.122253,201.139282 
	C368.659912,205.102448 369.897797,209.198364 371.694763,213.035385 
	C372.307861,214.344528 374.297241,215.893524 375.543152,215.800339 
	C377.136993,215.681168 379.029083,214.312408 380.031738,212.930191 
	C381.137848,211.405334 381.261139,209.201080 382.065399,207.406052 
	C382.358429,206.751984 383.379120,206.423920 384.059692,206.724640 
	C383.669464,208.463898 383.279205,210.203156 382.239655,212.494827 
M428.813354,228.667694 
	C431.069763,228.667694 433.326202,228.667694 435.974670,228.667694 
	C435.480133,219.869827 437.785095,211.302383 432.432861,203.653076 
	C432.170105,203.277557 433.435364,201.832916 434.194214,201.646042 
	C434.318726,201.876984 434.443237,202.107910 434.479065,202.592422 
	C434.582825,202.764114 434.735260,202.848450 435.064056,203.616241 
	C438.099915,211.571304 441.135773,219.526367 444.289276,228.378708 
	C447.429810,228.629486 450.570312,228.880264 454.013397,229.155197 
	C454.013397,214.601440 454.033142,201.034790 453.961975,187.468597 
	C453.957916,186.693008 453.210876,185.921310 451.940094,185.061478 
	C449.828308,185.061478 447.716492,185.061478 445.137207,185.061478 
	C445.137207,191.488678 445.137207,197.501373 445.137207,203.514069 
	C443.514709,202.269211 442.667542,200.812027 441.966431,199.287689 
	C440.552338,196.213058 439.217651,193.101883 437.945435,189.206970 
	C437.228607,181.967621 431.872620,186.210236 427.632446,184.687653 
	C428.821503,188.579330 429.732269,191.560165 430.971710,195.616714 
	C429.320007,194.453278 428.739838,194.044632 427.454895,194.234573 
	C427.333160,205.066437 427.196594,215.898193 427.134735,226.730408 
	C427.131744,227.255981 427.785400,227.785278 428.813354,228.667694 
M262.013550,194.942627 
	C261.951782,203.323578 261.890015,211.704514 261.061462,220.214996 
	C260.199982,222.775101 259.338501,225.335205 258.468842,227.919632 
	C265.738647,230.443436 267.838135,225.319229 271.648041,221.568863 
	C271.747162,212.146439 271.875488,202.724091 271.896362,193.301498 
	C271.898285,192.436874 271.213654,191.570755 270.363220,190.275330 
	C267.132111,187.754333 264.941498,182.676422 258.865875,186.122391 
	C260.652496,188.422836 256.426636,192.696915 262.013550,194.942627 
M253.993454,219.062622 
	C254.033447,210.701294 254.073441,202.339966 254.777115,193.614700 
	C255.725281,191.029877 256.673431,188.445038 257.707733,185.625397 
	C249.206238,184.556564 245.124863,188.110062 245.115692,195.257721 
	C245.105469,203.226624 245.101074,211.195602 245.117767,219.164474 
	C245.133133,226.503693 249.498901,229.833771 256.634521,227.979935 
	C257.224426,221.326752 257.224426,221.326752 253.993454,219.062622 
M161.248917,144.273285 
	C154.504745,143.994858 148.139755,144.786285 142.949844,150.521545 
	C146.038193,151.044327 148.555573,151.470459 151.235031,151.924042 
	C149.296097,158.839340 142.628204,151.753326 139.907089,156.696915 
	C143.104950,157.227478 146.077957,157.720734 149.193771,158.237686 
	C147.212708,164.883972 141.024521,158.692947 137.658279,162.569901 
	C141.119598,163.371597 144.062012,164.053131 147.541855,164.859131 
	C144.662445,170.658417 139.086929,164.678543 135.671082,168.514404 
	C139.109787,169.501007 142.061157,170.347778 145.237061,171.258957 
	C142.474655,177.759476 137.511490,170.668243 133.414581,174.164948 
	C136.929688,175.405960 139.904953,176.456390 143.001923,177.549774 
	C142.664551,178.677078 142.339264,179.764023 142.016861,180.841309 
	C138.687469,180.205963 135.598953,179.616577 132.510437,179.027206 
	C140.428467,184.800385 140.428467,184.800385 139.325943,186.842957 
	C136.231796,186.379730 133.219116,185.928711 130.206451,185.477692 
	C132.095871,187.380432 134.268188,188.115067 136.178696,189.279312 
	C137.143219,189.867096 137.633667,191.232864 138.338470,192.246857 
	C137.073151,192.337692 135.722092,192.752960 134.561844,192.446274 
	C132.633331,191.936523 130.827316,190.963318 128.969711,190.185303 
	C128.715271,190.676331 128.460831,191.167374 128.206390,191.658417 
	C130.049255,192.783859 131.808121,194.091599 133.756042,194.989014 
	C136.238678,196.132767 137.699585,197.349640 135.525772,199.954407 
	C133.472763,199.638962 131.504532,199.336548 129.536316,199.034134 
	C134.766266,203.187485 134.766266,203.187485 133.183426,206.176987 
	C131.775925,205.672379 130.368408,205.167755 129.044693,204.693192 
	C130.752747,208.717636 131.862442,212.783127 134.029617,216.172440 
	C141.157974,227.320648 151.797516,230.474609 164.366440,228.400497 
	C165.560257,228.203491 167.183975,227.643570 167.691650,226.738220 
	C170.971939,220.888290 174.695557,215.148285 176.959305,208.896271 
	C181.477173,196.418762 185.177872,183.643936 189.153778,170.972351 
	C190.655762,166.185379 189.591064,161.694489 186.804779,157.700256 
	C180.843781,149.154999 172.014938,145.754562 161.248917,144.273285 
M497.028290,218.796310 
	C497.058105,217.550964 497.328949,216.254761 497.078613,215.068527 
	C495.453033,207.365128 493.506256,199.724136 492.073944,191.986938 
	C490.788666,185.043915 491.020142,184.988617 484.095825,185.042404 
	C482.641724,185.053696 481.188629,185.193726 479.423004,185.291779 
	C477.908539,193.044250 476.437225,200.575806 474.908051,208.403656 
	C478.144073,208.403656 480.839539,208.403656 483.501190,208.403656 
	C483.876465,205.961990 484.191040,203.915268 484.505615,201.868561 
	C484.917114,201.914200 485.328644,201.959854 485.740173,202.005493 
	C486.206177,204.510880 486.672211,207.016266 487.232544,210.028885 
	C484.214844,210.028885 481.676483,209.672409 479.302582,210.143982 
	C477.470734,210.507874 474.742706,211.568359 474.325104,212.912949 
	C472.783630,217.876251 472.036591,223.086319 470.934906,228.477600 
	C474.226257,228.477600 476.803741,228.477600 479.505768,228.477600 
	C480.149506,225.532349 480.738373,222.837982 481.272217,220.395432 
	C486.500549,219.967377 491.387756,219.567245 497.028290,218.796310 
M420.017822,212.227753 
	C418.223724,203.307770 416.429626,194.387802 414.608459,185.333221 
	C410.908234,185.333221 407.338257,185.333221 403.226349,185.333221 
	C401.709198,193.141220 400.228210,200.763275 398.733032,208.458313 
	C402.502045,208.458313 404.932983,208.458313 407.453735,208.458313 
	C407.840515,206.029953 408.178345,203.909027 408.516174,201.788101 
	C408.867004,201.815811 409.217865,201.843521 409.568695,201.871231 
	C410.030640,204.421860 410.492584,206.972504 411.047699,210.037811 
	C408.535950,210.037811 406.384735,209.847351 404.281677,210.084396 
	C401.436859,210.405014 398.185059,210.637238 397.453522,214.208176 
	C396.505859,218.834091 395.951233,223.540497 395.190643,228.449554 
	C398.205109,228.449554 400.770508,228.449554 403.270996,228.449554 
	C404.957001,219.955215 404.957001,219.955231 413.450684,219.957748 
	C414.116516,219.957947 414.782349,219.961060 415.448181,219.958038 
	C421.302673,219.931503 421.928040,219.003540 420.017822,212.227753 
M280.956879,215.737656 
	C281.311035,217.990540 281.527008,220.275772 282.045197,222.490265 
	C283.606934,229.164536 284.275574,229.524277 292.015228,228.142151 
	C289.132263,213.909653 286.251038,199.685776 283.329865,185.264587 
	C280.634155,185.264587 278.052002,185.264587 274.698151,185.264587 
	C276.703400,195.380188 278.644012,205.169861 280.956879,215.737656 
M291.999542,218.466171 
	C292.739807,221.441437 293.480042,224.416702 294.220306,227.391968 
	C294.574402,227.300293 294.928528,227.208603 295.282623,227.116928 
	C297.915375,213.225433 300.548126,199.333939 303.188324,185.403259 
	C297.660278,184.583969 293.565002,184.375839 293.893555,191.155106 
	C293.997192,193.293304 292.582306,195.461227 292.219849,197.674088 
	C291.135101,204.296692 288.953094,210.940338 291.999542,218.466171 
M325.507202,210.963165 
	C326.931152,210.315796 329.567444,209.713455 329.593414,209.014130 
	C329.886505,201.126328 329.779022,193.223648 329.779022,185.413116 
	C326.579926,185.413116 324.038361,185.413116 321.204163,185.413116 
	C321.204163,193.246964 321.078369,200.689285 321.354889,208.116623 
	C321.391693,209.104233 323.471344,210.015747 325.507202,210.963165 
M315.966614,191.599365 
	C315.966614,189.511246 315.966614,187.423111 315.966614,185.294800 
	C312.695923,185.294800 310.112762,185.294800 307.024017,185.294800 
	C307.024017,189.967743 307.023499,194.400909 307.024170,198.834076 
	C307.025269,206.435303 308.180481,207.249222 315.966614,204.921875 
	C315.966614,200.848831 315.966614,196.710678 315.966614,191.599365 
M307.025299,225.113159 
	C307.977417,231.737335 312.588837,227.582520 315.658234,228.670975 
	C315.658234,221.496552 315.658234,214.961929 315.658234,208.440918 
	C312.641632,208.440918 309.951874,208.440918 307.024597,208.440918 
	C307.024597,213.950745 307.024597,219.065826 307.025299,225.113159 
M329.800781,224.266052 
	C329.800781,220.665939 329.800781,217.065811 329.800781,213.358719 
	C326.682281,213.358719 324.144348,213.358719 321.507812,213.358719 
	C321.507812,218.582321 321.507812,223.464096 321.507812,228.297058 
	C329.101013,229.407181 329.117279,229.400742 329.800781,224.266052 
M331.209015,185.754837 
	C331.603180,188.565323 329.007324,192.496872 333.352020,193.862411 
	C341.340942,196.373276 344.140717,193.543243 342.229004,185.184143 
	C338.823151,185.184143 335.371399,185.184143 331.209015,185.754837 
M330.999390,226.247604 
	C334.163147,231.510468 338.764832,227.623840 342.580841,228.820114 
	C342.580841,225.535034 342.580841,222.993835 342.580841,220.170181 
	C340.058319,220.170181 337.907501,220.353455 335.799469,220.131195 
	C331.696381,219.698563 330.420013,221.629913 330.999390,226.247604 
M489.829468,221.929504 
	C490.706757,229.386826 491.998505,230.191040 499.771667,227.834351 
	C499.254883,225.664474 498.733795,223.476608 498.235291,221.383408 
	C495.374786,221.383408 492.903961,221.383408 489.829468,221.929504 
M332.735016,210.920334 
	C334.970215,210.920334 337.205414,210.920334 339.521881,210.920334 
	C339.521881,207.987793 339.521881,205.744583 339.521881,203.336761 
	C336.580475,203.336761 333.903473,203.336761 330.608826,203.336761 
	C331.067444,206.113205 331.453339,208.449402 332.735016,210.920334 
M413.986267,223.992294 
	C414.931183,229.474030 415.141907,229.585663 423.065033,228.503952 
	C422.861725,226.153976 422.656708,223.783813 422.340332,220.126892 
	C418.981018,221.339783 416.392181,222.274475 413.986267,223.992294 
M125.857582,261.206635 
	C126.232780,261.132721 126.607979,261.058838 126.983170,260.984894 
	C126.905128,260.738464 126.786957,260.272583 126.755028,260.278412 
	C126.238487,260.372864 125.732895,260.527161 125.857582,261.206635 
z"/>
<path fill="#E5ECF2" opacity="1.000000" stroke="none" 
	d="
M161.692444,144.325012 
	C172.014938,145.754562 180.843781,149.154999 186.804779,157.700256 
	C189.591064,161.694489 190.655762,166.185379 189.153778,170.972351 
	C185.177872,183.643936 181.477173,196.418762 176.959305,208.896271 
	C174.695557,215.148285 170.971939,220.888290 167.691650,226.738220 
	C167.183975,227.643570 165.560257,228.203491 164.366440,228.400497 
	C151.797516,230.474609 141.157974,227.320648 134.029617,216.172440 
	C131.862442,212.783127 130.752747,208.717636 129.044693,204.693192 
	C130.368408,205.167755 131.775925,205.672379 133.181580,206.181915 
	C134.766266,203.187485 134.766266,203.187485 129.536316,199.034134 
	C131.504532,199.336548 133.472763,199.638962 135.525772,199.954407 
	C137.699585,197.349640 136.238678,196.132767 133.756042,194.989014 
	C131.808121,194.091599 130.049255,192.783859 128.206390,191.658417 
	C128.460831,191.167374 128.715271,190.676331 128.969711,190.185303 
	C130.827316,190.963318 132.633331,191.936523 134.561844,192.446274 
	C135.722092,192.752960 137.073151,192.337692 138.338470,192.246857 
	C137.633667,191.232864 137.143219,189.867096 136.178696,189.279312 
	C134.268188,188.115067 132.095871,187.380432 130.206451,185.477692 
	C133.219116,185.928711 136.231796,186.379730 139.325943,186.842957 
	C140.428467,184.800385 140.428467,184.800385 132.510437,179.027206 
	C135.598953,179.616577 138.687469,180.205963 142.016861,180.841309 
	C142.339264,179.764023 142.664551,178.677078 143.001923,177.549774 
	C139.904953,176.456390 136.929688,175.405960 133.414581,174.164948 
	C137.511490,170.668243 142.474655,177.759476 145.237061,171.258957 
	C142.061157,170.347778 139.109787,169.501007 135.671082,168.514404 
	C139.086929,164.678543 144.662445,170.658417 147.541855,164.859131 
	C144.062012,164.053131 141.119598,163.371597 137.658279,162.569901 
	C141.024521,158.692947 147.212708,164.883972 149.193771,158.237686 
	C146.077957,157.720734 143.104950,157.227478 139.907089,156.696915 
	C142.628204,151.753326 149.296097,158.839340 151.235031,151.924042 
	C148.555573,151.470459 146.038193,151.044327 142.949844,150.521545 
	C148.139755,144.786285 154.504745,143.994858 161.692444,144.325012 
M160.032181,192.608994 
	C161.937790,193.069504 163.843384,193.530014 165.748993,193.990524 
	C165.681458,194.449722 165.613907,194.908905 165.546356,195.368103 
	C164.007629,195.368103 162.430252,195.588791 160.937317,195.327316 
	C156.192902,194.496307 151.433884,193.666443 146.771683,192.478363 
	C143.851334,191.734161 142.853180,192.503113 143.107101,195.814941 
	C150.019608,197.237946 156.864334,198.646988 163.709061,200.056030 
	C163.666901,200.532593 163.624725,201.009140 163.582565,201.485687 
	C161.749374,201.485687 159.879364,201.720184 158.090240,201.439377 
	C153.661560,200.744263 149.291473,199.643890 144.850494,199.077866 
	C143.471878,198.902145 141.941254,199.919052 140.480209,200.389954 
	C140.600937,201.089081 140.721664,201.788208 140.842392,202.487335 
	C147.756989,203.740295 154.671570,204.993256 161.586166,206.246216 
	C160.096863,207.570007 158.576584,207.976929 157.132568,207.791138 
	C152.200348,207.156433 147.309021,206.186234 142.369370,205.639740 
	C141.146271,205.504425 139.799667,206.485565 138.509827,206.953506 
	C138.627457,207.676208 138.745071,208.398895 138.862701,209.121597 
	C145.668289,210.196793 152.473892,211.271973 159.556381,212.390900 
	C159.002899,213.938080 158.469910,215.428009 157.969650,216.826385 
	C153.492035,216.826385 149.370804,216.826385 144.125732,216.826385 
	C156.367874,220.994171 159.256989,219.653168 162.909760,209.265152 
	C165.903824,200.750366 169.023087,192.279633 171.852768,184.438065 
	C164.569656,182.679169 156.564957,180.746017 148.232666,178.733749 
	C147.796448,179.813812 147.341934,180.939148 146.783676,182.321365 
	C154.080109,184.269211 161.013031,186.120010 167.945938,187.970810 
	C167.769226,188.640411 167.592514,189.309998 167.415802,189.979599 
	C161.194626,188.619980 154.996887,187.128952 148.732468,186.011749 
	C147.481903,185.788727 145.976776,186.993073 144.589020,187.539246 
	C144.772964,188.098694 144.956909,188.658157 145.140869,189.217606 
	C149.824631,190.289383 154.508392,191.361145 160.032181,192.608994 
M156.704605,170.832703 
	C160.760513,172.191589 164.781036,173.677277 168.895752,174.825317 
	C170.004395,175.134644 171.399109,174.418671 172.662506,174.173325 
	C171.954132,173.231186 171.436508,171.779984 170.505768,171.431213 
	C165.269104,169.468948 159.978226,167.607666 154.591965,166.125839 
	C153.539642,165.836334 151.985794,167.369843 150.663269,168.062515 
	C150.848770,168.482178 151.034271,168.901840 151.219757,169.321518 
	C152.792801,169.742844 154.365829,170.164169 156.704605,170.832703 
M165.103973,166.413239 
	C166.927872,167.192200 168.702591,168.143295 170.594604,168.683838 
	C171.683563,168.994934 172.962341,168.641617 174.155685,168.587372 
	C173.507065,167.459549 173.123322,165.717377 172.166351,165.304764 
	C166.446457,162.838623 160.594467,160.678879 154.383148,158.259094 
	C153.914047,160.125122 153.617706,161.303894 153.299026,162.571594 
	C157.169235,163.829453 160.760666,164.996719 165.103973,166.413239 
M173.513626,158.891983 
	C168.774750,156.976990 164.043900,155.041824 159.294052,153.154465 
	C156.391876,152.001282 155.329895,153.183701 155.618561,155.726608 
	C161.332367,158.108856 166.788467,160.465164 172.324844,162.614700 
	C173.288513,162.988861 174.590820,162.490906 175.736710,162.395767 
	C175.207718,161.347549 174.678741,160.299347 173.513626,158.891983 
M168.794724,181.437653 
	C169.626328,180.891998 170.457932,180.346344 171.289520,179.800674 
	C170.530426,179.036423 169.900574,177.861404 168.991058,177.575195 
	C163.471802,175.838394 157.922653,174.159836 152.294830,172.839874 
	C151.318314,172.610840 149.919037,174.184204 147.981705,175.376312 
	C155.663559,177.628815 161.853470,179.443863 168.794724,181.437653 
z"/>
<path fill="#F3F6F9" opacity="1.000000" stroke="none" 
	d="
M128.072678,257.998260 
	C121.893837,253.024719 121.729782,247.602951 128.562668,243.936707 
	C134.132233,240.948288 140.530258,239.503906 147.366699,237.090408 
	C147.366699,235.544037 147.366699,232.791504 147.366699,229.764038 
	C150.270828,230.129379 152.658188,230.429718 155.326874,230.765442 
	C155.326874,233.386734 155.326874,235.653854 155.326874,237.022476 
	C161.911240,239.387466 168.244705,240.894333 173.804214,243.854675 
	C180.670502,247.510834 180.859039,252.120499 174.833771,257.893188 
	C170.358200,259.474121 166.528259,260.866119 162.752731,262.392731 
	C162.332855,262.562531 162.222763,263.498474 161.502853,264.042725 
	C154.029266,263.931305 147.021820,263.856232 139.937881,263.438477 
	C135.931808,261.396637 132.002243,259.697449 128.072678,257.998260 
z"/>
<path fill="#E57E43" opacity="1.000000" stroke="none" 
	d="
M384.067810,205.947128 
	C383.379120,206.423920 382.358429,206.751984 382.065399,207.406052 
	C381.261139,209.201080 381.137848,211.405334 380.031738,212.930191 
	C379.029083,214.312408 377.136993,215.681168 375.543152,215.800339 
	C374.297241,215.893524 372.307861,214.344528 371.694763,213.035385 
	C369.897797,209.198364 368.659912,205.102448 367.122253,201.139282 
	C366.634552,199.882263 365.892975,198.723740 365.267578,197.520142 
	C364.799805,197.711349 364.332031,197.902557 363.864288,198.093765 
	C365.539246,202.461472 367.214233,206.829193 368.937622,212.032196 
	C368.986023,217.771378 368.986023,222.675262 368.986023,227.859009 
	C366.004272,227.859009 363.590057,227.859009 361.175842,227.859009 
	C361.142334,217.729828 360.594604,207.563156 361.329102,197.489975 
	C361.621857,193.474930 363.327484,189.627960 360.883301,185.722702 
	C369.318115,184.089401 369.387909,184.143158 372.304443,191.260956 
	C373.264923,193.605072 374.351440,195.897568 375.924744,199.439255 
	C377.522217,195.913956 378.606476,193.673813 379.563477,191.380554 
	C382.386505,184.615692 382.366821,184.607483 390.732788,185.381531 
	C390.024811,187.731491 389.341614,189.999146 388.825989,192.630829 
	C388.993591,192.994843 389.008118,192.967270 388.593323,193.058136 
	C388.116791,194.117645 388.055084,195.086304 388.005310,196.033875 
	C388.017303,196.012802 388.049072,195.976212 387.673584,195.692444 
	C386.862061,197.291489 386.425964,199.174301 386.002655,201.035522 
	C386.015411,201.013931 386.047394,200.975311 385.669647,200.699371 
	C384.857117,202.300400 384.422333,204.177383 384.005249,206.025757 
	C384.022919,205.997177 384.067810,205.947128 384.067810,205.947128 
z"/>
<path fill="#E8A447" opacity="1.000000" stroke="none" 
	d="
M496.651642,218.981720 
	C491.387756,219.567245 486.500549,219.967377 481.272217,220.395432 
	C480.738373,222.837982 480.149506,225.532349 479.505768,228.477600 
	C476.803741,228.477600 474.226257,228.477600 470.934906,228.477600 
	C472.036591,223.086319 472.783630,217.876251 474.325104,212.912949 
	C474.742706,211.568359 477.470734,210.507874 479.302582,210.143982 
	C481.676483,209.672409 484.214844,210.028885 487.232544,210.028885 
	C486.672211,207.016266 486.206177,204.510880 485.740173,202.005493 
	C485.328644,201.959854 484.917114,201.914200 484.505615,201.868561 
	C484.191040,203.915268 483.876465,205.961990 483.501190,208.403656 
	C480.839539,208.403656 478.144073,208.403656 474.908051,208.403656 
	C476.437225,200.575806 477.908539,193.044250 479.423004,185.291779 
	C481.188629,185.193726 482.641724,185.053696 484.095825,185.042404 
	C491.020142,184.988617 490.788666,185.043915 492.073944,191.986938 
	C493.506256,199.724136 495.453033,207.365128 497.078613,215.068527 
	C497.328949,216.254761 497.058105,217.550964 496.651642,218.981720 
z"/>
<path fill="#EA8A43" opacity="1.000000" stroke="none" 
	d="
M420.043915,212.665192 
	C421.928040,219.003540 421.302673,219.931503 415.448181,219.958038 
	C414.782349,219.961060 414.116516,219.957947 413.450684,219.957748 
	C404.957001,219.955231 404.957001,219.955215 403.270996,228.449554 
	C400.770508,228.449554 398.205109,228.449554 395.190643,228.449554 
	C395.951233,223.540497 396.505859,218.834091 397.453522,214.208176 
	C398.185059,210.637238 401.436859,210.405014 404.281677,210.084396 
	C406.384735,209.847351 408.535950,210.037811 411.047699,210.037811 
	C410.492584,206.972504 410.030640,204.421860 409.568695,201.871231 
	C409.217865,201.843521 408.867004,201.815811 408.516174,201.788101 
	C408.178345,203.909027 407.840515,206.029953 407.453735,208.458313 
	C404.932983,208.458313 402.502045,208.458313 398.733032,208.458313 
	C400.228210,200.763275 401.709198,193.141220 403.226349,185.333221 
	C407.338257,185.333221 410.908234,185.333221 414.608459,185.333221 
	C416.429626,194.387802 418.223724,203.307770 420.043915,212.665192 
z"/>
<path fill="#E4483B" opacity="1.000000" stroke="none" 
	d="
M233.265060,202.280228 
	C232.090408,205.118912 231.275909,208.191864 229.629135,210.723434 
	C228.269241,212.813934 225.925095,214.264160 224.017090,215.998108 
	C222.442566,214.195465 220.373627,212.625351 219.394180,210.542831 
	C217.206818,205.892014 215.562912,200.985580 213.352661,196.082169 
	C213.007706,195.981049 213.049377,195.997360 213.049377,195.997360 
	C212.078659,192.615341 211.107941,189.233307 210.136078,185.847275 
	C217.597046,183.950851 218.032730,184.183594 220.494278,191.077026 
	C221.042877,192.613342 221.587967,194.158722 222.271133,195.636856 
	C222.888382,196.972427 223.692230,198.221741 224.618286,199.873901 
	C226.673676,194.975357 228.641983,190.284363 230.744919,185.272522 
	C233.165298,185.272522 235.942123,185.272522 239.349365,185.272522 
	C238.378616,187.919647 237.446564,190.144638 236.783493,192.447083 
	C236.561951,193.216354 237.027969,194.183624 237.891922,195.282974 
	C238.604156,206.221848 238.604156,216.938141 238.604156,227.749039 
	C236.432053,227.749039 234.386261,227.749039 231.923538,227.749039 
	C231.923538,221.908844 231.923538,216.441132 231.923538,210.973434 
	C232.647583,208.605240 233.371643,206.237061 234.405701,203.319305 
	C234.715683,201.953217 234.715683,201.136688 234.715683,200.320145 
	C234.518890,200.278992 234.322098,200.237839 234.125305,200.196686 
	C233.838562,200.891205 233.551819,201.585724 233.265060,202.280228 
z"/>
<path fill="#ED9843" opacity="1.000000" stroke="none" 
	d="
M444.171631,227.481415 
	C441.135773,219.526367 438.099915,211.571304 434.986481,203.114258 
	C434.908905,202.612274 434.567780,202.338852 434.567780,202.338852 
	C434.443237,202.107910 434.318726,201.876984 434.268585,200.918961 
	C435.512024,196.796524 436.681091,193.401154 437.850159,190.005798 
	C439.217651,193.101883 440.552338,196.213058 441.966431,199.287689 
	C442.667542,200.812027 443.514709,202.269211 445.137207,203.514069 
	C445.137207,197.501373 445.137207,191.488678 445.137207,185.061478 
	C447.716492,185.061478 449.828308,185.061478 452.432739,185.560715 
	C452.925354,199.927368 452.925354,213.794800 452.925354,228.380402 
	C449.611908,228.040115 446.891785,227.760773 444.171631,227.481415 
z"/>
<path fill="#E4573E" opacity="1.000000" stroke="none" 
	d="
M254.085114,219.997772 
	C257.224426,221.326752 257.224426,221.326752 256.634521,227.979935 
	C249.498901,229.833771 245.133133,226.503693 245.117767,219.164474 
	C245.101074,211.195602 245.105469,203.226624 245.115692,195.257721 
	C245.124863,188.110062 249.206238,184.556564 257.707733,185.625397 
	C256.673431,188.445038 255.725281,191.029877 254.060318,194.005539 
	C253.221146,200.777542 252.997147,207.159256 253.032974,213.539536 
	C253.045059,215.694183 253.715530,217.845139 254.085114,219.997772 
z"/>
<path fill="#E4573E" opacity="1.000000" stroke="none" 
	d="
M280.770752,215.348587 
	C278.644012,205.169861 276.703400,195.380188 274.698151,185.264587 
	C278.052002,185.264587 280.634155,185.264587 283.329865,185.264587 
	C286.251038,199.685776 289.132263,213.909653 292.015228,228.142151 
	C284.275574,229.524277 283.606934,229.164536 282.045197,222.490265 
	C281.527008,220.275772 281.311035,217.990540 280.770752,215.348587 
z"/>
<path fill="#E4573E" opacity="1.000000" stroke="none" 
	d="
M270.982727,222.129700 
	C267.838135,225.319229 265.738647,230.443436 258.468842,227.919632 
	C259.338501,225.335205 260.199982,222.775101 261.842621,219.936066 
	C262.765625,211.568436 262.926422,203.479889 262.999481,195.390564 
	C263.003601,194.934647 262.286499,194.472214 261.905060,194.012817 
	C256.426636,192.696915 260.652496,188.422836 258.865875,186.122391 
	C264.941498,182.676422 267.132111,187.754333 270.589447,190.991287 
	C270.871368,201.848068 270.927063,211.988876 270.982727,222.129700 
z"/>
<path fill="#EA8A43" opacity="1.000000" stroke="none" 
	d="
M437.897797,189.606384 
	C436.681091,193.401154 435.512024,196.796524 434.166016,200.539001 
	C433.435364,201.832916 432.170105,203.277557 432.432861,203.653076 
	C437.785095,211.302383 435.480133,219.869827 435.974670,228.667694 
	C433.326202,228.667694 431.069763,228.667694 428.467621,227.987762 
	C428.134491,216.083893 428.147095,204.859940 428.159698,193.635986 
	C428.739838,194.044632 429.320007,194.453278 430.971710,195.616714 
	C429.732269,191.560165 428.821503,188.579330 427.632446,184.687653 
	C431.872620,186.210236 437.228607,181.967621 437.897797,189.606384 
z"/>
<path fill="#E46740" opacity="1.000000" stroke="none" 
	d="
M292.028320,218.036072 
	C288.953094,210.940338 291.135101,204.296692 292.219849,197.674088 
	C292.582306,195.461227 293.997192,193.293304 293.893555,191.155106 
	C293.565002,184.375839 297.660278,184.583969 303.188324,185.403259 
	C300.548126,199.333939 297.915375,213.225433 295.282623,227.116928 
	C294.928528,227.208603 294.574402,227.300293 294.220306,227.391968 
	C293.480042,224.416702 292.739807,221.441437 292.028320,218.036072 
z"/>
<path fill="#D66B47" opacity="1.000000" stroke="none" 
	d="
M325.056091,210.962830 
	C323.471344,210.015747 321.391693,209.104233 321.354889,208.116623 
	C321.078369,200.689285 321.204163,193.246964 321.204163,185.413116 
	C324.038361,185.413116 326.579926,185.413116 329.779022,185.413116 
	C329.779022,193.223648 329.886505,201.126328 329.593414,209.014130 
	C329.567444,209.713455 326.931152,210.315796 325.056091,210.962830 
z"/>
<path fill="#E57E43" opacity="1.000000" stroke="none" 
	d="
M388.979370,192.999817 
	C389.613892,194.560333 390.797089,196.106644 390.824066,197.672882 
	C390.991699,207.400482 390.899933,217.132553 390.432373,227.425858 
	C387.750580,227.988571 385.530579,227.988571 382.888947,227.988571 
	C382.888947,222.176727 382.888947,217.059570 382.888947,211.942413 
	C383.279205,210.203156 383.669464,208.463898 384.063751,206.335876 
	C384.067810,205.947128 384.022919,205.997177 384.359070,205.915710 
	C385.145966,204.214615 385.596680,202.594971 386.047394,200.975311 
	C386.047394,200.975311 386.015411,201.013931 386.339966,200.896515 
	C387.126038,199.178131 387.587555,197.577179 388.049072,195.976212 
	C388.049072,195.976212 388.017303,196.012802 388.382935,195.878265 
	C388.835114,194.818237 388.921631,193.892761 389.008118,192.967270 
	C389.008118,192.967270 388.993591,192.994843 388.979370,192.999817 
z"/>
<path fill="#E4483B" opacity="1.000000" stroke="none" 
	d="
M210.683777,193.334885 
	C211.328506,194.420670 211.973267,195.506439 212.833710,196.294800 
	C213.049377,195.997360 213.007706,195.981049 212.999786,195.959351 
	C213.506210,198.672302 213.429504,201.708847 214.643661,204.086105 
	C218.579422,211.792175 218.152222,219.870575 217.742218,228.603897 
	C215.342651,228.603897 213.104523,228.603897 210.521362,227.943573 
	C210.345474,215.967133 210.514618,204.651001 210.683777,193.334885 
z"/>
<path fill="#E5ECF2" opacity="1.000000" stroke="none" 
	d="
M161.969009,264.079071 
	C162.222763,263.498474 162.332855,262.562531 162.752731,262.392731 
	C166.528259,260.866119 170.358200,259.474121 174.512421,258.010773 
	C175.274353,264.891388 169.930893,265.654022 165.190567,266.896484 
	C153.432327,269.978363 141.892227,269.463684 130.756302,264.197571 
	C131.058716,263.502899 131.288300,263.085663 131.517883,262.668427 
	C129.980957,262.465027 128.444016,262.261627 126.907089,262.058228 
	C127.308563,261.104950 127.710037,260.151672 128.092102,258.598328 
	C132.002243,259.697449 135.931808,261.396637 139.598557,263.628235 
	C141.230728,264.705383 143.153717,265.790436 145.015488,265.694000 
	C150.679352,265.400604 156.319580,264.651031 161.969009,264.079071 
z"/>
<path fill="#E46740" opacity="1.000000" stroke="none" 
	d="
M315.966614,192.085938 
	C315.966614,196.710678 315.966614,200.848831 315.966614,204.921875 
	C308.180481,207.249222 307.025269,206.435303 307.024170,198.834076 
	C307.023499,194.400909 307.024017,189.967743 307.024017,185.294800 
	C310.112762,185.294800 312.695923,185.294800 315.966614,185.294800 
	C315.966614,187.423111 315.966614,189.511246 315.966614,192.085938 
z"/>
<path fill="#E46740" opacity="1.000000" stroke="none" 
	d="
M307.024963,224.647034 
	C307.024597,219.065826 307.024597,213.950745 307.024597,208.440918 
	C309.951874,208.440918 312.641632,208.440918 315.658234,208.440918 
	C315.658234,214.961929 315.658234,221.496552 315.658234,228.670975 
	C312.588837,227.582520 307.977417,231.737335 307.024963,224.647034 
z"/>
<path fill="#ED9843" opacity="1.000000" stroke="none" 
	d="
M459.188171,208.146713 
	C459.618164,207.792007 460.048157,207.437302 461.064972,206.945038 
	C462.115051,206.799667 462.578278,206.791855 463.041534,206.784027 
	C464.271912,207.446442 465.502319,208.108856 466.905212,208.864151 
	C466.905212,214.817001 466.905212,220.848877 466.444092,227.442688 
	C463.764008,228.004623 461.545074,228.004623 459.188171,228.004623 
	C459.188171,220.955246 459.188171,214.550980 459.188171,208.146713 
z"/>
<path fill="#ED9843" opacity="1.000000" stroke="none" 
	d="
M459.172729,185.142410 
	C461.493530,185.142410 463.814331,185.142410 466.907227,185.142410 
	C466.907227,191.451782 466.907227,197.689713 466.448242,204.506973 
	C463.767334,205.086319 461.545410,205.086319 459.172729,205.086319 
	C459.172729,198.002182 459.172729,191.572296 459.172729,185.142410 
z"/>
<path fill="#D66B47" opacity="1.000000" stroke="none" 
	d="
M329.800476,224.725525 
	C329.117279,229.400742 329.101013,229.407181 321.507812,228.297058 
	C321.507812,223.464096 321.507812,218.582321 321.507812,213.358719 
	C324.144348,213.358719 326.682281,213.358719 329.800781,213.358719 
	C329.800781,217.065811 329.800781,220.665939 329.800476,224.725525 
z"/>
<path fill="#E46740" opacity="1.000000" stroke="none" 
	d="
M331.564331,185.469482 
	C335.371399,185.184143 338.823151,185.184143 342.229004,185.184143 
	C344.140717,193.543243 341.340942,196.373276 333.352020,193.862411 
	C329.007324,192.496872 331.603180,188.565323 331.564331,185.469482 
z"/>
<path fill="#D66B47" opacity="1.000000" stroke="none" 
	d="
M330.993713,225.808716 
	C330.420013,221.629913 331.696381,219.698563 335.799469,220.131195 
	C337.907501,220.353455 340.058319,220.170181 342.580841,220.170181 
	C342.580841,222.993835 342.580841,225.535034 342.580841,228.820114 
	C338.764832,227.623840 334.163147,231.510468 330.993713,225.808716 
z"/>
<path fill="#E8A447" opacity="1.000000" stroke="none" 
	d="
M490.131287,221.656464 
	C492.903961,221.383408 495.374786,221.383408 498.235291,221.383408 
	C498.733795,223.476608 499.254883,225.664474 499.771667,227.834351 
	C491.998505,230.191040 490.706757,229.386826 490.131287,221.656464 
z"/>
<path fill="#D66B47" opacity="1.000000" stroke="none" 
	d="
M332.287109,210.852966 
	C331.453339,208.449402 331.067444,206.113205 330.608826,203.336761 
	C333.903473,203.336761 336.580475,203.336761 339.521881,203.336761 
	C339.521881,205.744583 339.521881,207.987793 339.521881,210.920334 
	C337.205414,210.920334 334.970215,210.920334 332.287109,210.852966 
z"/>
<path fill="#EA8A43" opacity="1.000000" stroke="none" 
	d="
M413.894806,223.600739 
	C416.392181,222.274475 418.981018,221.339783 422.340332,220.126892 
	C422.656708,223.783813 422.861725,226.153976 423.065033,228.503952 
	C415.141907,229.585663 414.931183,229.474030 413.894806,223.600739 
z"/>
<path fill="#546580" opacity="1.000000" stroke="none" 
	d="
M231.604431,211.251068 
	C231.923538,216.441132 231.923538,221.908844 231.923538,227.749039 
	C234.386261,227.749039 236.432053,227.749039 238.604156,227.749039 
	C238.604156,216.938141 238.604156,206.221848 238.264862,195.235687 
	C238.211990,194.430756 238.498444,193.895691 238.784882,193.360611 
	C239.182602,194.086716 239.912659,194.807098 239.925262,195.539841 
	C240.022324,201.182465 239.980667,206.827499 239.981262,212.471786 
	C239.981812,217.752060 239.981384,223.032349 239.981384,228.638214 
	C236.989517,228.638214 234.411011,228.638214 231.285309,228.638214 
	C231.285309,222.984634 231.285309,217.256668 231.604431,211.251068 
z"/>
<path fill="#546580" opacity="1.000000" stroke="none" 
	d="
M444.230469,227.930054 
	C446.891785,227.760773 449.611908,228.040115 452.925354,228.380402 
	C452.925354,213.794800 452.925354,199.927368 452.867493,185.603882 
	C453.210876,185.921310 453.957916,186.693008 453.961975,187.468597 
	C454.033142,201.034790 454.013397,214.601440 454.013397,229.155197 
	C450.570312,228.880264 447.429810,228.629486 444.230469,227.930054 
z"/>
<path fill="#546580" opacity="1.000000" stroke="none" 
	d="
M210.228424,193.344849 
	C210.514618,204.651001 210.345474,215.967133 210.179230,227.785095 
	C209.940338,228.068161 209.485901,227.848053 209.487244,227.630783 
	C209.558182,216.205307 209.667648,204.780060 210.228424,193.344849 
z"/>
<path fill="#546580" opacity="1.000000" stroke="none" 
	d="
M427.807312,193.935272 
	C428.147095,204.859940 428.134491,216.083893 428.127563,227.810333 
	C427.785400,227.785278 427.131744,227.255981 427.134735,226.730408 
	C427.196594,215.898193 427.333160,205.066437 427.807312,193.935272 
z"/>
<path fill="#546580" opacity="1.000000" stroke="none" 
	d="
M458.763977,185.285355 
	C459.172729,191.572296 459.172729,198.002182 459.172729,205.086319 
	C461.545410,205.086319 463.767334,205.086319 466.422333,204.964874 
	C465.730835,205.315781 464.606262,205.788116 463.261627,206.522247 
	C462.578278,206.791855 462.115051,206.799667 461.305115,206.797241 
	C459.969849,205.582535 458.169678,204.403717 458.130615,203.169205 
	C457.943817,197.263855 458.234375,191.343384 458.763977,185.285355 
z"/>
<path fill="#546580" opacity="1.000000" stroke="none" 
	d="
M271.315369,221.849274 
	C270.927063,211.988876 270.871368,201.848068 270.831726,191.206299 
	C271.213654,191.570755 271.898285,192.436874 271.896362,193.301498 
	C271.875488,202.724091 271.747162,212.146439 271.315369,221.849274 
z"/>
<path fill="#546580" opacity="1.000000" stroke="none" 
	d="
M458.778015,208.286835 
	C459.188171,214.550980 459.188171,220.955246 459.188171,228.004623 
	C461.545074,228.004623 463.764008,228.004623 466.417114,227.897125 
	C464.171875,228.360596 461.492462,228.931549 458.367889,229.597351 
	C458.367889,221.913147 458.367889,215.170059 458.778015,208.286835 
z"/>
<path fill="#546580" opacity="1.000000" stroke="none" 
	d="
M254.039276,219.530197 
	C253.715530,217.845139 253.045059,215.694183 253.032974,213.539536 
	C252.997147,207.159256 253.221146,200.777542 253.728485,194.187500 
	C254.073441,202.339966 254.033447,210.701294 254.039276,219.530197 
z"/>
<path fill="#546580" opacity="1.000000" stroke="none" 
	d="
M261.959290,194.477722 
	C262.286499,194.472214 263.003601,194.934647 262.999481,195.390564 
	C262.926422,203.479889 262.765625,211.568436 262.226013,219.871307 
	C261.890015,211.704514 261.951782,203.323578 261.959290,194.477722 
z"/>
<path fill="#546580" opacity="1.000000" stroke="none" 
	d="
M382.564301,212.218628 
	C382.888947,217.059570 382.888947,222.176727 382.888947,227.988571 
	C385.530579,227.988571 387.750580,227.988571 390.402893,227.879044 
	C388.169373,228.342590 385.503448,228.915680 382.239655,229.617279 
	C382.239655,223.274948 382.239655,217.884888 382.564301,212.218628 
z"/>
<path fill="#546580" opacity="1.000000" stroke="none" 
	d="
M361.311829,228.255707 
	C363.590057,227.859009 366.004272,227.859009 368.986023,227.859009 
	C368.986023,222.675262 368.986023,217.771378 369.028748,212.396118 
	C369.504822,217.376175 369.938141,222.827606 370.434418,229.070923 
	C366.870758,228.904953 364.159302,228.778671 361.311829,228.255707 
z"/>
<path fill="#F3F6F9" opacity="1.000000" stroke="none" 
	d="
M126.928520,262.071075 
	C128.444016,262.261627 129.980957,262.465027 131.517883,262.668427 
	C131.288300,263.085663 131.058716,263.502899 130.536728,263.939270 
	C129.999191,263.886078 129.754074,263.813812 129.108521,263.183472 
	C128.126755,262.460907 127.545403,262.296356 126.964058,262.131805 
	C126.964058,262.131805 126.949951,262.083923 126.928520,262.071075 
z"/>
<path fill="#F3F6F9" opacity="1.000000" stroke="none" 
	d="
M125.541199,260.937286 
	C125.732895,260.527161 126.238487,260.372864 126.755028,260.278412 
	C126.786957,260.272583 126.905128,260.738464 126.983170,260.984924 
	C126.607979,261.058838 126.232780,261.132721 125.541199,260.937286 
z"/>
<path fill="#E5ECF2" opacity="1.000000" stroke="none" 
	d="
M126.982254,262.142578 
	C127.545403,262.296356 128.126755,262.460907 128.836395,262.913513 
	C128.964676,263.201599 128.596375,263.300018 128.596375,263.300018 
	C128.596375,263.300018 128.245285,263.151184 127.900024,262.769226 
	C127.358170,262.298462 127.161560,262.209656 126.964951,262.120880 
	C126.964951,262.120880 127.000458,262.153320 126.982254,262.142578 
z"/>
<path fill="#EA8A43" opacity="1.000000" stroke="none" 
	d="
M434.523438,202.465637 
	C434.567780,202.338852 434.908905,202.612274 434.922607,202.728851 
	C434.735260,202.848450 434.582825,202.764114 434.523438,202.465637 
z"/>
<path fill="#F3F6F9" opacity="1.000000" stroke="none" 
	d="
M126.995827,262.312744 
	C127.161560,262.209656 127.358170,262.298462 127.767792,262.630188 
	C127.662781,262.750305 127.344742,262.627472 126.995827,262.312744 
z"/>
<path fill="#0C1621" opacity="1.000000" stroke="none" 
	d="
M159.612167,192.520966 
	C154.508392,191.361145 149.824631,190.289383 145.140869,189.217606 
	C144.956909,188.658157 144.772964,188.098694 144.589020,187.539246 
	C145.976776,186.993073 147.481903,185.788727 148.732468,186.011749 
	C154.996887,187.128952 161.194626,188.619980 167.415802,189.979599 
	C167.592514,189.309998 167.769226,188.640411 167.945938,187.970810 
	C161.013031,186.120010 154.080109,184.269211 146.783676,182.321365 
	C147.341934,180.939148 147.796448,179.813812 148.232666,178.733749 
	C156.564957,180.746017 164.569656,182.679169 171.852768,184.438065 
	C169.023087,192.279633 165.903824,200.750366 162.909760,209.265152 
	C159.256989,219.653168 156.367874,220.994171 144.125732,216.826385 
	C149.370804,216.826385 153.492035,216.826385 157.969650,216.826385 
	C158.469910,215.428009 159.002899,213.938080 159.556381,212.390900 
	C152.473892,211.271973 145.668289,210.196793 138.862701,209.121597 
	C138.745071,208.398895 138.627457,207.676208 138.509827,206.953506 
	C139.799667,206.485565 141.146271,205.504425 142.369370,205.639740 
	C147.309021,206.186234 152.200348,207.156433 157.132568,207.791138 
	C158.576584,207.976929 160.096863,207.570007 161.586166,206.246216 
	C154.671570,204.993256 147.756989,203.740295 140.842392,202.487335 
	C140.721664,201.788208 140.600937,201.089081 140.480209,200.389954 
	C141.941254,199.919052 143.471878,198.902145 144.850494,199.077866 
	C149.291473,199.643890 153.661560,200.744263 158.090240,201.439377 
	C159.879364,201.720184 161.749374,201.485687 163.582565,201.485687 
	C163.624725,201.009140 163.666901,200.532593 163.709061,200.056030 
	C156.864334,198.646988 150.019608,197.237946 143.107101,195.814941 
	C142.853180,192.503113 143.851334,191.734161 146.771683,192.478363 
	C151.433884,193.666443 156.192902,194.496307 160.937317,195.327316 
	C162.430252,195.588791 164.007629,195.368103 165.546356,195.368103 
	C165.613907,194.908905 165.681458,194.449722 165.748993,193.990524 
	C163.843384,193.530014 161.937790,193.069504 159.612167,192.520966 
z"/>
<path fill="#0C1621" opacity="1.000000" stroke="none" 
	d="
M156.321732,170.709106 
	C154.365829,170.164169 152.792801,169.742844 151.219757,169.321518 
	C151.034271,168.901840 150.848770,168.482178 150.663269,168.062515 
	C151.985794,167.369843 153.539642,165.836334 154.591965,166.125839 
	C159.978226,167.607666 165.269104,169.468948 170.505768,171.431213 
	C171.436508,171.779984 171.954132,173.231186 172.662506,174.173325 
	C171.399109,174.418671 170.004395,175.134644 168.895752,174.825317 
	C164.781036,173.677277 160.760513,172.191589 156.321732,170.709106 
z"/>
<path fill="#0C1621" opacity="1.000000" stroke="none" 
	d="
M164.728043,166.288605 
	C160.760666,164.996719 157.169235,163.829453 153.299026,162.571594 
	C153.617706,161.303894 153.914047,160.125122 154.383148,158.259094 
	C160.594467,160.678879 166.446457,162.838623 172.166351,165.304764 
	C173.123322,165.717377 173.507065,167.459549 174.155685,168.587372 
	C172.962341,168.641617 171.683563,168.994934 170.594604,168.683838 
	C168.702591,168.143295 166.927872,167.192200 164.728043,166.288605 
z"/>
<path fill="#0C1621" opacity="1.000000" stroke="none" 
	d="
M173.831696,159.071564 
	C174.678741,160.299347 175.207718,161.347549 175.736710,162.395767 
	C174.590820,162.490906 173.288513,162.988861 172.324844,162.614700 
	C166.788467,160.465164 161.332367,158.108856 155.618561,155.726608 
	C155.329895,153.183701 156.391876,152.001282 159.294052,153.154465 
	C164.043900,155.041824 168.774750,156.976990 173.831696,159.071564 
z"/>
<path fill="#0C1621" opacity="1.000000" stroke="none" 
	d="
M168.419037,181.348267 
	C161.853470,179.443863 155.663559,177.628815 147.981705,175.376312 
	C149.919037,174.184204 151.318314,172.610840 152.294830,172.839874 
	C157.922653,174.159836 163.471802,175.838394 168.991058,177.575195 
	C169.900574,177.861404 170.530426,179.036423 171.289520,179.800690 
	C170.457932,180.346344 169.626328,180.891998 168.419037,181.348267 
z"/>
<path fill="#000000" opacity="1.000000" stroke="none" 
	d="
M161.502853,264.042725 
	C156.319580,264.651031 150.679352,265.400604 145.015488,265.694000 
	C143.153717,265.790436 141.230728,264.705383 139.675064,263.970886 
	C147.021820,263.856232 154.029266,263.931305 161.502853,264.042725 
z"/>
<path fill="#000000" opacity="1.000000" stroke="none" 
	d="
M385.669647,200.699371 
	C385.596680,202.594971 385.145966,204.214615 384.341370,205.944305 
	C384.422333,204.177383 384.857117,202.300400 385.669647,200.699371 
z"/>
<path fill="#000000" opacity="1.000000" stroke="none" 
	d="
M387.673584,195.692444 
	C387.587555,197.577179 387.126038,199.178131 386.327209,200.918091 
	C386.425964,199.174301 386.862061,197.291489 387.673584,195.692444 
z"/>
<path fill="#000000" opacity="1.000000" stroke="none" 
	d="
M388.593323,193.058136 
	C388.921631,193.892761 388.835114,194.818237 388.370972,195.899338 
	C388.055084,195.086304 388.116791,194.117645 388.593323,193.058136 
z"/>
<path fill="#000000" opacity="1.000000" stroke="none" 
	d="
M233.469147,202.496460 
	C233.551819,201.585724 233.838562,200.891205 234.125305,200.196686 
	C234.322098,200.237839 234.518890,200.278992 234.715683,200.320145 
	C234.715683,201.136688 234.715683,201.953217 234.418747,202.936432 
	C233.972275,202.972961 233.822754,202.842819 233.469147,202.496460 
z"/>
</svg>